# xmcd CD database file generated by freedbAccess_ocx
#
# Track frame offsets:
#       150
#       14737
#       34087
#       49810
#       67797
#       83442
#       104010
#       121430
#       140040
#       153837
#       164530
#       177265
#
# Disc length: 2662 seconds
#
# Revision: 0
# Processed by: cddbd v1.5.1PL0 Copyright (c) Steve Scherf et al.
# Submitted via: CDnGo 2.00
#
DISCID=9e0a640c
DTITLE=Various Artist - Becel Musik-Cd
DYEAR=2002
DGENRE=Pop
TTITLE0=Belinda Carlisle - Always breaking my heart
TTITLE1=T´Pau - Heart and Soul
TTITLE2=Bonnie Tyler - It´s a heartache
TTITLE3=Shakin´Stevens - Breaking up my heart
TTITLE4=Pat Benator - Heartbreaker
TTITLE5=Blondie - Heart of glass
TTITLE6=UB40 - Don´t break my heart
TTITLE7=Jennifer Rush - A broken heart
TTITLE8=Fats Domino - Heartbreak hill
TTITLE9=Jonny Cash - Cold cold heart
TTITLE10=Frank Sinatra - Be careful it´s my heart
TTITLE11=Marylin Monroe - My heart belongs to daddy
EXTD=
EXTT0=
EXTT1=
EXTT2=
EXTT3=
EXTT4=
EXTT5=
EXTT6=
EXTT7=
EXTT8=
EXTT9=
EXTT10=
EXTT11=
PLAYORDER=
